<svg xmlns="http://www.w3.org/2000/svg" viewBox="0 0 120 120" width="120" height="120" role="img" aria-label="Rosengrund Bildmarke">
  <title>Rosengrund – Bildmarke</title>
  <defs>
    <linearGradient id="goldIcon" x1="0" y1="0" x2="1" y2="1">
      <stop offset="0" stop-color="#E6CE93"/>
      <stop offset="1" stop-color="#B8913F"/>
    </linearGradient>
  </defs>
  <rect width="120" height="120" rx="26" fill="#12291F"/>
  <g transform="translate(60,62) scale(0.34) translate(-118,-100)"
     fill="none" stroke="url(#goldIcon)" stroke-linecap="round" stroke-linejoin="round">
    <path d="M171.5 52A78 78 0 1 0 168 152" stroke-width="7"/>
    <path d="M150 80V62h10v20" stroke-width="8"/>
    <path d="M88 98 134 54 180 98" stroke-width="9"/>
    <path d="M100 92v58h68V92" stroke-width="9"/>
    <rect x="128" y="106" width="26" height="28" rx="1.5" stroke-width="7"/>
    <circle cx="72" cy="92" r="26" fill="#12291F" stroke-width="8"/>
    <path d="M72 110a15 15 0 1 1 0-30 11 11 0 1 0 0 22" stroke-width="7"/>
    <path d="M72 118v34" stroke-width="8"/>
    <path d="M72 128c10-4 21 2 25 12-11 4-21-2-25-12z" stroke-width="7"/>
    <path d="M72 140c-9-3-18 2-21 10 9 3 18-2 21-10z" stroke-width="7"/>
  </g>
</svg>
